Normalized EMG Linear Envelopes
nRows=238
nColumns=4

endheader
time	 med_gas_r	  soleus_r	 tib_ant_r	
4.3246	  0.007114	  0.025126	  0.001811	
4.35786	  0.007259	  0.023238	  0.001874	
4.39113	  0.007392	  0.020353	  0.001987	
4.4244	  0.007553	  0.017559	  0.002169	
4.45766	  0.007762	  0.015689	  0.002439	
4.49093	  0.007990	  0.015291	  0.002812	
4.52419	  0.008185	  0.016662	  0.003290	
4.55746	  0.008328	  0.019843	  0.003855	
4.59073	  0.008387	  0.024550	  0.004452	
4.62399	  0.008342	  0.030113	  0.004972	
4.65726	  0.008187	  0.035340	  0.005231	
4.69052	  0.007941	  0.038344	  0.005085	
4.72379	  0.007644	  0.037229	  0.004625	
4.75706	  0.007291	  0.032829	  0.004006	
4.79032	  0.006856	  0.026876	  0.003353	
4.82359	  0.006329	  0.020732	  0.002742	
4.85685	  0.005721	  0.015245	  0.002217	
4.89012	  0.005106	  0.010833	  0.001806	
4.92339	  0.004575	  0.007605	  0.001519	
4.95665	  0.004168	  0.005476	  0.001346	
4.98992	  0.003878	  0.004238	  0.001260	
5.02319	  0.003685	  0.003652	  0.001233	
5.05645	  0.003575	  0.003509	  0.001244	
5.08972	  0.003537	  0.003638	  0.001279	
5.12298	  0.003559	  0.003904	  0.001323	
5.15625	  0.003630	  0.004220	  0.001372	
5.18952	  0.003731	  0.004523	  0.001417	
5.22278	  0.003830	  0.004750	  0.001447	
5.25605	  0.003909	  0.004882	  0.001459	
5.28931	  0.003965	  0.004935	  0.001463	
5.32258	  0.003999	  0.004916	  0.001464	
5.35585	  0.004028	  0.004847	  0.001473	
5.38911	  0.004087	  0.004757	  0.001501	
5.42238	  0.004212	  0.004688	  0.001559	
5.45565	  0.004438	  0.004690	  0.001652	
5.48891	  0.004789	  0.004811	  0.001781	
5.52218	  0.005253	  0.005085	  0.001930	
5.55544	  0.005786	  0.005537	  0.002073	
5.58871	  0.006332	  0.006202	  0.002180	
5.62198	  0.006871	  0.007136	  0.002239	
5.65524	  0.007402	  0.008396	  0.002259	
5.68851	  0.007927	  0.010009	  0.002249	
5.72177	  0.008441	  0.011943	  0.002217	
5.75504	  0.008956	  0.014092	  0.002169	
5.78831	  0.009464	  0.016230	  0.002122	
5.82157	  0.009864	  0.017893	  0.002090	
5.85484	  0.009973	  0.018344	  0.002073	
5.8881	  0.009721	  0.017375	  0.002066	
5.92137	  0.009199	  0.015485	  0.002052	
5.95464	  0.008509	  0.013202	  0.002002	
5.9879	  0.007720	  0.010921	  0.001879	
6.02117	  0.006856	  0.008872	  0.001639	
6.05444	  0.005957	  0.007157	  0.001240	
6.0877	  0.005120	  0.005811	  0.000648	
6.12097	  0.004412	  0.004805	 -0.000165	
6.15423	  0.003855	  0.004077	 -0.001204	
6.1875	  0.003457	  0.003570	 -0.002428	
6.22077	  0.003204	  0.003224	 -0.003720	
6.25403	  0.003068	  0.002998	 -0.004862	
6.2873	  0.003034	  0.002913	 -0.005481	
6.32056	  0.003124	  0.003066	 -0.005021	
6.35383	  0.003379	  0.003612	 -0.002725	
6.3871	  0.003866	  0.004762	  0.002346	
6.42036	  0.004667	  0.006754	  0.011236	
6.45363	  0.005860	  0.009815	  0.024938	
6.4869	  0.007511	  0.014137	  0.044133	
6.52016	  0.009650	  0.019784	  0.068788	
6.55343	  0.012212	  0.026559	  0.097583	
6.58669	  0.014964	  0.033814	  0.127191	
6.61996	  0.017527	  0.040465	  0.152728	
6.65323	  0.019698	  0.045866	  0.173037	
6.68649	  0.021471	  0.050078	  0.189218	
6.71976	  0.022875	  0.053234	  0.200962	
6.75302	  0.023861	  0.055248	  0.207683	
6.78629	  0.024445	  0.056149	  0.210232	
6.81956	  0.024760	  0.056186	  0.209623	
6.85282	  0.024925	  0.055573	  0.205920	
6.88609	  0.025060	  0.054599	  0.200093	
6.91935	  0.025193	  0.053831	  0.193381	
6.95262	  0.025267	  0.053521	  0.186949	
6.98589	  0.025231	  0.053715	  0.181514	
7.01915	  0.025020	  0.054515	  0.177152	
7.05242	  0.024620	  0.055582	  0.173608	
7.08569	  0.023976	  0.055918	  0.170718	
7.11895	  0.023156	  0.055078	  0.168748	
7.15222	  0.022306	  0.053736	  0.167738	
7.18548	  0.021526	  0.052457	  0.167634	
7.21875	  0.020832	  0.051530	  0.169020	
7.25202	  0.020255	  0.050890	  0.171780	
7.28528	  0.019791	  0.050096	  0.174997	
7.31855	  0.019470	  0.048953	  0.177888	
7.35181	  0.019351	  0.047686	  0.180104	
7.38508	  0.019457	  0.046542	  0.181485	
7.41835	  0.019753	  0.045348	  0.181470	
7.45161	  0.020148	  0.044073	  0.180922	
7.48488	  0.020457	  0.042937	  0.180953	
7.51815	  0.020596	  0.042210	  0.182266	
7.55141	  0.020606	  0.042153	  0.184511	
7.58468	  0.020557	  0.042911	  0.186986	
7.61794	  0.020492	  0.044366	  0.189125	
7.65121	  0.020374	  0.046208	  0.189485	
7.68448	  0.020172	  0.048120	  0.187873	
7.71774	  0.019940	  0.049816	  0.185424	
7.75101	  0.019724	  0.050846	  0.182697	
7.78427	  0.019561	  0.050848	  0.179887	
7.81754	  0.019514	  0.050186	  0.178562	
7.85081	  0.019590	  0.049236	  0.179259	
7.88407	  0.019777	  0.048048	  0.180248	
7.91734	  0.019968	  0.046823	  0.180613	
7.9506	  0.020002	  0.045585	  0.180226	
7.98387	  0.019794	  0.044253	  0.178002	
8.01714	  0.019377	  0.042958	  0.174138	
8.0504	  0.018790	  0.041817	  0.169881	
8.08367	  0.018106	  0.040829	  0.166351	
8.11694	  0.017404	  0.039985	  0.164358	
8.1502	  0.016777	  0.039330	  0.164245	
8.18347	  0.016335	  0.038794	  0.165577	
8.21673	  0.016167	  0.038278	  0.168097	
8.25	  0.016347	  0.037965	  0.171948	
8.28327	  0.016862	  0.038036	  0.177175	
8.31653	  0.017634	  0.038593	  0.183652	
8.3498	  0.018466	  0.039590	  0.190220	
8.38306	  0.019075	  0.040781	  0.195323	
8.41633	  0.019319	  0.041944	  0.198461	
8.4496	  0.019193	  0.043014	  0.199697	
8.48286	  0.018809	  0.044138	  0.199796	
8.51613	  0.018312	  0.045584	  0.199853	
8.5494	  0.017803	  0.047515	  0.200105	
8.58266	  0.017402	  0.049768	  0.200878	
8.61593	  0.017251	  0.051954	  0.202393	
8.64919	  0.017400	  0.053486	  0.205280	
8.68246	  0.017770	  0.054015	  0.209906	
8.71573	  0.018171	  0.053531	  0.214837	
8.74899	  0.018413	  0.052102	  0.218223	
8.78226	  0.018428	  0.050125	  0.218242	
8.81552	  0.018257	  0.047972	  0.214131	
8.84879	  0.018054	  0.045964	  0.206319	
8.88206	  0.017978	  0.044324	  0.196854	
8.91532	  0.018114	  0.043160	  0.187698	
8.94859	  0.018470	  0.042513	  0.180371	
8.98185	  0.018988	  0.042398	  0.175936	
9.01512	  0.019569	  0.042733	  0.173927	
9.04839	  0.020116	  0.043364	  0.174243	
9.08165	  0.020537	  0.044147	  0.176316	
9.11492	  0.020774	  0.045108	  0.178961	
9.14819	  0.020872	  0.046065	  0.181143	
9.18145	  0.020910	  0.046944	  0.182533	
9.21472	  0.020894	  0.047842	  0.182806	
9.24798	  0.020863	  0.048809	  0.183159	
9.28125	  0.020895	  0.049939	  0.184721	
9.31452	  0.020985	  0.051307	  0.186753	
9.34778	  0.021179	  0.052789	  0.189059	
9.38105	  0.021442	  0.054278	  0.191800	
9.41431	  0.021713	  0.055792	  0.193586	
9.44758	  0.021950	  0.057240	  0.194303	
9.48085	  0.022100	  0.058337	  0.194911	
9.51411	  0.022166	  0.058803	  0.196616	
9.54738	  0.022089	  0.058473	  0.199575	
9.58065	  0.021786	  0.057182	  0.203458	
9.61391	  0.021361	  0.055380	  0.208119	
9.64718	  0.020877	  0.053467	  0.212743	
9.68044	  0.020352	  0.051551	  0.217081	
9.71371	  0.019874	  0.050048	  0.221296	
9.74698	  0.019491	  0.049025	  0.224467	
9.78024	  0.019226	  0.048463	  0.225665	
9.81351	  0.019122	  0.048645	  0.225394	
9.84677	  0.019191	  0.049460	  0.224292	
9.88004	  0.019444	  0.050587	  0.223094	
9.91331	  0.019908	  0.051648	  0.221976	
9.94657	  0.020535	  0.052334	  0.221161	
9.97984	  0.021218	  0.052713	  0.220632	
10.0131	  0.021822	  0.052676	  0.220098	
10.0464	  0.022254	  0.052140	  0.220060	
10.0796	  0.022465	  0.051253	  0.220374	
10.1129	  0.022346	  0.049930	  0.220833	
10.1462	  0.021886	  0.048255	  0.220907	
10.1794	  0.021255	  0.046585	  0.220107	
10.2127	  0.020593	  0.045237	  0.218260	
10.246	  0.020017	  0.044445	  0.215674	
10.2792	  0.019621	  0.044226	  0.212934	
10.3125	  0.019385	  0.044308	  0.211327	
10.3458	  0.019212	  0.044495	  0.212198	
10.379	  0.018931	  0.044788	  0.216501	
10.4123	  0.018509	  0.045371	  0.224032	
10.4456	  0.018042	  0.046378	  0.232828	
10.4788	  0.017665	  0.047630	  0.241261	
10.5121	  0.017489	  0.048925	  0.247356	
10.5454	  0.017581	  0.050313	  0.250165	
10.5786	  0.018014	  0.051729	  0.250197	
10.6119	  0.018734	  0.052722	  0.247646	
10.6452	  0.019608	  0.052981	  0.241935	
10.6784	  0.020479	  0.052396	  0.231713	
10.7117	  0.021201	  0.050962	  0.216867	
10.745	  0.021626	  0.048846	  0.198616	
10.7782	  0.021629	  0.046153	  0.177474	
10.8115	  0.021150	  0.043125	  0.153693	
10.8448	  0.020271	  0.040165	  0.128008	
10.878	  0.019125	  0.037643	  0.101806	
10.9113	  0.017904	  0.035861	  0.077018	
10.9446	  0.016783	  0.035252	  0.055857	
10.9778	  0.015845	  0.035899	  0.039667	
11.0111	  0.015069	  0.037301	  0.028852	
11.0444	  0.014356	  0.038736	  0.022948	
11.0776	  0.013675	  0.039068	  0.020875	
11.1109	  0.012968	  0.037246	  0.021054	
11.1442	  0.012242	  0.033761	  0.021512	
11.1774	  0.011526	  0.029461	  0.020594	
11.2107	  0.010859	  0.025457	  0.018151	
11.244	  0.010244	  0.022723	  0.015003	
11.2772	  0.009692	  0.021769	  0.011813	
11.3105	  0.009220	  0.022702	  0.008982	
11.3437	  0.008875	  0.025242	  0.006716	
11.377	  0.008685	  0.028644	  0.005057	
11.4103	  0.008650	  0.031623	  0.003949	
11.4435	  0.008761	  0.033245	  0.003294	
11.4768	  0.008966	  0.033748	  0.002973	
11.5101	  0.009177	  0.033195	  0.002872	
11.5433	  0.009326	  0.031025	  0.002907	
11.5766	  0.009402	  0.027131	  0.003021	
11.6099	  0.009431	  0.022439	  0.003178	
11.6431	  0.009455	  0.017830	  0.003363	
11.6764	  0.009540	  0.013865	  0.003555	
11.7097	  0.009735	  0.010772	  0.003737	
11.7429	  0.010032	  0.008539	  0.003891	
11.7762	  0.010357	  0.007035	  0.003985	
11.8095	  0.010604	  0.006082	  0.003997	
11.8427	  0.010693	  0.005541	  0.003939	
11.876	  0.010605	  0.005319	  0.003836	
11.9093	  0.010345	  0.005344	  0.003714	
11.9425	  0.009927	  0.005541	  0.003601	
11.9758	  0.009441	  0.005840	  0.003494	
12.0091	  0.008985	  0.006171	  0.003384	
12.0423	  0.008613	  0.006479	  0.003256	
12.0756	  0.008382	  0.006736	  0.003103	
12.1089	  0.008382	  0.006955	  0.002940	
12.1421	  0.008642	  0.007151	  0.002787	
12.1754	  0.009133	  0.007317	  0.002658	
12.2087	  0.009800	  0.007446	  0.002568	
